<?xml version="1.0" encoding="iso-8859-1"?>
<svg version="1.1" id="Layer_1" xmlns="http://www.w3.org/2000/svg" xmlns:xlink="http://www.w3.org/1999/xlink" x="0px" y="0px"
   viewBox="0 0 100 100" >

   <defs>
     <linearGradient id="gradient1" x1="0%" y1="0%" x2="0%" y2="100%">
        <stop offset="5%" />
        <stop offset="70%" />
     </linearGradient>

      <linearGradient id="gradient2" x1="0%" y1="0%" x2="0%" y2="100%">
        <stop offset="5%" />
        <stop offset="70%" />
      </linearGradient>

      <linearGradient id="gradient3" x1="0%" y1="0%" x2="0%" y2="100%">
        <stop offset="5%" />
        <stop offset="70%" />
      </linearGradient>

      <linearGradient id="gradient4" x1="0%" y1="0%" x2="0%" y2="100%">
        <stop offset="5%" />
        <stop offset="70%" />
      </linearGradient>

  </defs>

  <ellipse cx="45" cy="30" rx="10" ry="10" fill="url(#gradient1)" />
  <ellipse cx="55" cy="30" rx="10" ry="10" fill="url(#gradient2)" />
  <ellipse cx="65" cy="30" rx="10" ry="10" fill="url(#gradient3)" />

  <ellipse cx="35" cy="40" rx="10" ry="10" fill="url(#gradient4)" />
  <ellipse cx="45" cy="40" rx="10" ry="10" fill="url(#gradient1)" />
  <ellipse cx="55" cy="40" rx="10" ry="10" fill="url(#gradient2)" />
  <ellipse cx="65" cy="40" rx="10" ry="10" fill="url(#gradient2)" />
  <ellipse cx="75" cy="40" rx="10" ry="10" fill="url(#gradient3)" />

  <ellipse cx="35" cy="50" rx="10" ry="10" fill="url(#gradient2)" />
  <ellipse cx="45" cy="50" rx="10" ry="10" fill="url(#gradient4)" />
  <ellipse cx="55" cy="50" rx="10" ry="10" fill="url(#gradient1)" />
  <ellipse cx="65" cy="50" rx="10" ry="10" fill="url(#gradient3)" />

  <ellipse cx="45" cy="60" rx="10" ry="10" fill="url(#gradient2)" />
  <ellipse cx="55" cy="60" rx="10" ry="10" fill="url(#gradient4)" />
  <ellipse cx="65" cy="60" rx="10" ry="10" fill="url(#gradient1)" />
</svg>
