<?xml version="1.0" encoding="iso-8859-1"?>
<svg version="1.1" id="Layer_1" xmlns="http://www.w3.org/2000/svg" xmlns:xlink="http://www.w3.org/1999/xlink" x="0px" y="0px"
	 viewBox="0 180 512 512" style="enable-background:new 0 0 512 512;" xml:space="preserve">

 <defs>
    <linearGradient id="grad1" x1="0%" y1="0%" x2="0%" y2="100%">
        <stop id="stop_1" offset="5%" style="stop-color:rgb(202,120,150);stop-opacity:0.5" />
        <stop id="stop_1" offset="30%" style="stop-color:rgb(202,0,150);stop-opacity:1" />
        <stop id="stop_3" offset="40%" style="stop-color:rgb(50, 64, 126);stop-opacity:1" />
        <stop id="stop_1" offset="70%" style="stop-color:rgb(0,120,150);stop-opacity:0.5" />
    </linearGradient>
</defs>

<!-- outer circle -->
<path style="fill:#9e9e9e;" d="M372.357,348.386c0,63.959-52.092,115.809-116.357,115.809c-64.261,0-116.357-51.85-116.357-115.809
	s52.095-115.809,116.357-115.809C320.266,232.577,372.357,284.426,372.357,348.386z"/>

<!-- outer shadow -->
<path style="opacity:0.1;enable-background:new    ;" d="M173.006,348.386c0-58.321,43.318-106.565,99.676-114.619
	c-5.448-0.778-11.016-1.19-16.682-1.19c-64.261,0-116.357,51.85-116.357,115.809s52.095,115.809,116.357,115.809
	c5.665,0,11.234-0.411,16.682-1.189C216.325,454.952,173.006,406.707,173.006,348.386z"/>

<!-- center -->
<path fill="url(#grad1)" d="M333.865,348.386c0,42.801-34.858,77.499-77.865,77.499c-43.003,0-77.866-34.698-77.866-77.499
	c0-42.802,34.862-77.499,77.866-77.499C299.007,270.887,333.865,305.584,333.865,348.386z"/>

<!-- inner shadow -->
<path style="opacity:0.1;enable-background:new    ;" d="M211.31,348.386c0-37.134,26.247-68.151,61.278-75.72
	c-5.348-1.155-10.894-1.78-16.589-1.78c-43.003,0-77.866,34.697-77.866,77.499c0,42.801,34.862,77.499,77.866,77.499
	c5.695,0,11.241-0.625,16.589-1.781C237.558,416.537,211.31,385.519,211.31,348.386z"/>

<!-- inner reflection -->
<path style="fill:#FFFFFF; opacity: 1;" d="M263.52,404.557c-3.337-0.018-6.23-2.322-6.99-5.572c-0.762-3.25,0.806-6.599,3.79-8.097
	c7.674-3.853,15.326-9.487,22.131-16.291c6.925-6.925,12.623-14.704,16.481-22.497c1.237-2.498,3.769-4.018,6.466-4.018
	c0.532,0,1.066,0.059,1.599,0.179c3.252,0.738,5.577,3.606,5.622,6.94c0.004,0.233,0.006,0.468,0.006,0.702
	c0,26.828-21.92,48.655-48.866,48.655L263.52,404.557z"/>
</svg>
